<svg width="48" height="48" viewBox="0 0 48 48" fill="none" xmlns="http://www.w3.org/2000/svg">
<path d="M39.2451 18.3051C44.0801 18.3052 48 22.225 48 27.06C47.9999 32.3344 43.7236 36.6097 38.4492 36.6098H36.9463C33.9193 43.3253 27.1666 48.0003 19.3223 48.0004C8.65106 48.0004 8.49186e-05 39.3493 0 28.6781V18.3051H39.2451ZM38.6445 28.6781C38.6445 30.1641 38.4758 31.6107 38.1582 33.0004H38.2607C41.4302 33.0003 43.9999 30.4306 44 27.2611C44 24.3557 41.6447 22.0005 38.7393 22.0004H38.6445V28.6781Z" fill="#5ED491"/>
<path d="M8.54236 15.0508C8.54236 6.7385 15.2809 0 23.5932 0H36.2034V0C36.2034 8.31235 29.4649 15.0508 21.1525 15.0508H8.54236V15.0508Z" fill="#97F179"/>
</svg>
