<?xml version="1.0" encoding="utf-8"?>
<!-- Generator: Adobe Illustrator 27.0.0, SVG Export Plug-In . SVG Version: 6.00 Build 0)  -->
<svg version="1.1" id="레이어_1" xmlns="http://www.w3.org/2000/svg" xmlns:xlink="http://www.w3.org/1999/xlink" x="0px"
	 y="0px" viewBox="0 0 32 32" style="enable-background:new 0 0 32 32;" xml:space="preserve">
<style type="text/css">
	.st0{fill:#FAE100;}
	.st1{fill:#371D1E;}
</style>
<path class="st0" d="M16,0L16,0c8.8,0,16,7.2,16,16l0,0c0,8.8-7.2,16-16,16l0,0C7.2,32,0,24.8,0,16l0,0C0,7.2,7.2,0,16,0z"/>
<path class="st1" d="M16,8c-5.2,0-9.5,3.3-9.5,7.4c0,2.6,1.8,5,4.5,6.3c-0.2,0.7-0.7,2.6-0.8,3c-0.1,0.5,0.2,0.5,0.4,0.4
	c0.2-0.1,2.6-1.7,3.7-2.4c0.6,0.1,1.2,0.1,1.8,0.1c5.2,0,9.5-3.3,9.5-7.4C25.5,11.3,21.2,8,16,8z"/>
</svg>
